<svg height='36.053px' width='30.961px'  fill="#54758b" xmlns="http://www.w3.org/2000/svg" xmlns:xlink="http://www.w3.org/1999/xlink" version="1.1" x="0px" y="0px" viewBox="0 0 100 100" style="enable-background:new 0 0 100 100;" xml:space="preserve"><path d="M54.4,68.8c-1,0.8-2.2,1.2-3.5,1.2c-1.1,0-2-0.5-2.7-1.4c-0.7-0.9-1-2-1-3.3V46.4c0-0.8-0.3-1.2-0.9-1.2  c-0.8,0-2.1,0.7-3.8,2.2c0.2-0.8,1.1-1.9,2.6-3.3c1.5-1.4,3-2.1,4.3-2.1c1.3,0,2.2,0.5,2.8,1.5c0.5,1,0.8,2.2,0.8,3.7v18  c0.2,1.2,0.6,1.8,1.3,1.8c0.5,0,1.1-0.3,1.8-0.8c0.7-0.6,1.1-0.9,1.3-1.1C56.5,66.7,55.4,68,54.4,68.8z M50,30c-2.5,0-4.5,2-4.5,4.5  c0,2.5,2,4.5,4.5,4.5s4.5-2,4.5-4.5C54.5,32,52.5,30,50,30z M83,20.8V95H17V5h50.2L83,20.8z M78,24.8H64.2V10H22v80h56V24.8z   M69.2,13.9v5.9h5.5L69.2,13.9z"></path></svg>